<?xml version="1.0" encoding="UTF-8" standalone="no"?>
<svg
   xmlns:osb="http://www.openswatchbook.org/uri/2009/osb"
   xmlns:dc="http://purl.org/dc/elements/1.1/"
   xmlns:cc="http://creativecommons.org/ns#"
   xmlns:rdf="http://www.w3.org/1999/02/22-rdf-syntax-ns#"
   xmlns:svg="http://www.w3.org/2000/svg"
   xmlns="http://www.w3.org/2000/svg"
   xmlns:xlink="http://www.w3.org/1999/xlink"
   xmlns:sodipodi="http://sodipodi.sourceforge.net/DTD/sodipodi-0.dtd"
   xmlns:inkscape="http://www.inkscape.org/namespaces/inkscape"
   width="210mm"
   height="297mm"
   viewBox="0 0 210 297"
   version="1.1"
   id="svg877"
   sodipodi:docname="CVIJET VJEŽBA 2 LEOPOLD ŠEPAK.svg"
   inkscape:version="1.0.2-2 (e86c870879, 2021-01-15)">
  <defs
     id="defs871">
    <linearGradient
       id="linearGradient1482"
       osb:paint="solid"
       gradientTransform="matrix(-0.31886103,0.00830645,-0.00841249,-0.31484153,36.778704,25.59836)">
      <stop
         style="stop-color:#fee4b2;stop-opacity:1;"
         offset="0"
         id="stop1480" />
    </linearGradient>
    <linearGradient
       id="linearGradient1476"
       osb:paint="solid">
      <stop
         style="stop-color:#b57bb2;stop-opacity:1;"
         offset="0"
         id="stop1474" />
    </linearGradient>
    <linearGradient
       id="unutar_latica"
       osb:paint="solid"
       gradientTransform="matrix(-0.00356542,-0.33965292,0.35582081,-0.01586052,-25.694421,36.149242)">
      <stop
         style="stop-color:#b57bb2;stop-opacity:1;"
         offset="0"
         id="stop1468" />
    </linearGradient>
    <linearGradient
       id="stabiljka"
       osb:paint="solid"
       gradientTransform="translate(137.91109,-144.86009)">
      <stop
         style="stop-color:#6dc418;stop-opacity:1;"
         offset="0"
         id="stop1462" />
    </linearGradient>
    <linearGradient
       id="latica_2_"
       osb:paint="solid">
      <stop
         style="stop-color:#e50000;stop-opacity:1;"
         offset="0"
         id="stop1456" />
    </linearGradient>
    <linearGradient
       id="latica"
       osb:paint="solid"
       gradientTransform="rotate(-118.8992,102.32723,81.693636)">
      <stop
         style="stop-color:#e5bae8;stop-opacity:1;"
         offset="0"
         id="stop1450" />
    </linearGradient>
    <linearGradient
       inkscape:collect="always"
       xlink:href="#latica"
       id="linearGradient1454"
       x1="243.13947"
       y1="27.313979"
       x2="295.0986"
       y2="27.313979"
       gradientUnits="userSpaceOnUse" />
    <linearGradient
       inkscape:collect="always"
       xlink:href="#latica_2_"
       id="linearGradient1460"
       x1="243.89543"
       y1="95.916656"
       x2="302.65814"
       y2="95.916656"
       gradientUnits="userSpaceOnUse"
       gradientTransform="translate(1.6036172)" />
    <linearGradient
       inkscape:collect="always"
       xlink:href="#unutar_latica"
       id="linearGradient1472"
       x1="245.78531"
       y1="225.18451"
       x2="308.70575"
       y2="225.18451"
       gradientUnits="userSpaceOnUse" />
    <linearGradient
       inkscape:collect="always"
       xlink:href="#linearGradient1482"
       id="linearGradient1484"
       x1="334.60974"
       y1="65.678558"
       x2="387.32483"
       y2="65.678558"
       gradientUnits="userSpaceOnUse" />
  </defs>
  <sodipodi:namedview
     id="base"
     pagecolor="#ffffff"
     bordercolor="#666666"
     borderopacity="1.0"
     inkscape:pageopacity="0.0"
     inkscape:pageshadow="2"
     inkscape:zoom="0.49497475"
     inkscape:cx="720.39034"
     inkscape:cy="555.62762"
     inkscape:document-units="mm"
     inkscape:current-layer="layer2"
     inkscape:document-rotation="0"
     showgrid="false"
     objecttolerance="1"
     inkscape:window-width="1920"
     inkscape:window-height="1017"
     inkscape:window-x="-8"
     inkscape:window-y="-8"
     inkscape:window-maximized="1" />
  <metadata
     id="metadata874">
    <rdf:RDF>
      <cc:Work
         rdf:about="">
        <dc:format>image/svg+xml</dc:format>
        <dc:type
           rdf:resource="http://purl.org/dc/dcmitype/StillImage" />
        <dc:title></dc:title>
      </cc:Work>
    </rdf:RDF>
  </metadata>
  <g
     id="layer2"
     inkscape:label="Sloj 2">
    <rect
       style="display:inline;opacity:0.995;fill:#649bff;fill-opacity:1;fill-rule:evenodd;stroke:#000000;stroke-width:7.38635;stroke-linecap:square;stroke-dashoffset:23.1307;stroke-opacity:0.3;paint-order:markers stroke fill"
       id="rect947"
       width="234.10756"
       height="327.11734"
       x="-11.34868"
       y="-5.4052072" />
  </g>
  <g
     inkscape:label="Sloj 1"
     inkscape:groupmode="layer"
     id="layer1">
    <g
       id="g1491"
       inkscape:label="BOJE"
       style="display:none"
       sodipodi:insensitive="true">
      <rect
         style="opacity:0.995;fill:url(#linearGradient1454);fill-opacity:1;fill-rule:evenodd;stroke:#000000;stroke-width:2.82223;stroke-linecap:square;stroke-dashoffset:23.1307;stroke-opacity:0.3;paint-order:markers stroke fill"
         id="rect1440"
         width="49.136902"
         height="45.735119"
         x="244.55058"
         y="4.4464197" />
      <rect
         style="opacity:0.995;fill:url(#linearGradient1460);fill-opacity:1;fill-rule:evenodd;stroke:#000000;stroke-width:2.82223;stroke-linecap:square;stroke-dashoffset:23.1307;stroke-opacity:0.3;paint-order:markers stroke fill"
         id="rect1442"
         width="55.940475"
         height="55.184521"
         x="246.91017"
         y="68.324394" />
      <rect
         style="opacity:0.995;fill:#6dc418;fill-opacity:1;fill-rule:evenodd;stroke:#000000;stroke-width:2.82223;stroke-linecap:square;stroke-dashoffset:23.1307;stroke-opacity:0.3;paint-order:markers stroke fill"
         id="rect1444"
         width="56.69643"
         height="38.175598"
         x="244.92857"
         y="151.85713" />
      <rect
         style="opacity:0.995;fill:url(#linearGradient1472);fill-opacity:1;fill-rule:evenodd;stroke:#000000;stroke-width:2.82223;stroke-linecap:square;stroke-dashoffset:23.1307;stroke-opacity:0.3;paint-order:markers stroke fill"
         id="rect1446"
         width="60.098213"
         height="36.285713"
         x="247.19643"
         y="207.04166" />
      <rect
         style="opacity:0.995;fill:url(#linearGradient1484);fill-opacity:1;fill-rule:evenodd;stroke:#000000;stroke-width:2.82223;stroke-linecap:square;stroke-dashoffset:23.1307;stroke-opacity:0.3;paint-order:markers stroke fill"
         id="rect1448"
         width="49.892868"
         height="49.136902"
         x="336.02084"
         y="41.110111" />
    </g>
    <g
       id="g1544"
       inkscape:label="ISPOD LATICE"
       transform="matrix(0.92387299,0,0,0.91299993,7.3396742,8.0996827)"
       sodipodi:insensitive="true">
      <path
         style="fill:url(#linearGradient1482);stroke:url(#unutar_latica);stroke-width:0.264583px;stroke-linecap:butt;stroke-linejoin:miter;stroke-opacity:1"
         d="m 102.24256,81.837045 c 0,0 41.01041,-34.679316 36.4747,-52.822173 C 134.18155,10.872015 123.03125,3.3124912 104.13244,3.6904676 85.233631,4.0684436 73.705357,9.1711221 71.626488,23.912193 69.547617,38.653264 102.24256,81.837045 102.24256,81.837045 Z"
         id="path1526"
         inkscape:transform-center-x="-2.8347441"
         inkscape:transform-center-y="-38.96099" />
      <path
         style="fill:url(#linearGradient1482);stroke:url(#unutar_latica);stroke-width:0.264583px;stroke-linecap:butt;stroke-linejoin:miter;stroke-opacity:1"
         d="m 102.69191,81.827176 c 0,0 -52.195726,-12.653664 -64.168953,1.71219 -11.973227,14.365854 -11.498785,27.828784 -0.04403,42.865294 11.45475,15.03651 22.376046,21.33442 35.504906,14.31631 13.128862,-7.01811 28.708077,-58.893794 28.708077,-58.893794 z"
         id="path1528"
         inkscape:transform-center-x="36.261417"
         inkscape:transform-center-y="28.41369" />
      <path
         style="fill:url(#linearGradient1482);stroke:url(#unutar_latica);stroke-width:0.264583px;stroke-linecap:butt;stroke-linejoin:miter;stroke-opacity:1"
         d="m 102.43992,81.467189 c 0,0 16.31642,51.169161 34.81241,53.932191 18.49599,2.76304 29.75132,-4.6392 36.64438,-22.24015 6.89307,-17.60096 6.59765,-30.204574 -6.22148,-37.77365 -12.81912,-7.569077 -65.23531,6.081609 -65.23531,6.081609 z"
         id="path1530"
         inkscape:transform-center-x="-37.946808"
         inkscape:transform-center-y="22.812992" />
      <path
         style="fill:url(#linearGradient1482);stroke:url(#unutar_latica);stroke-width:0.264583px;stroke-linecap:butt;stroke-linejoin:miter;stroke-opacity:1"
         d="m 102.25502,81.578186 c 0,0 49.91658,19.820294 63.77904,7.267677 13.86247,-12.552606 15.27317,-25.949828 6.031,-42.438919 -9.24216,-16.489105 -19.17671,-24.250755 -33.15715,-19.135271 -13.98044,5.115475 -36.65289,54.306513 -36.65289,54.306513 z"
         id="path1532"
         inkscape:transform-center-x="-37.632512"
         inkscape:transform-center-y="-22.355703" />
      <path
         style="fill:url(#linearGradient1482);stroke:url(#unutar_latica);stroke-width:0.264583px;stroke-linecap:butt;stroke-linejoin:miter;stroke-opacity:1"
         d="m 102.43624,81.968447 c 0,0 -5.194272,-53.455856 -22.696017,-60.045613 C 62.238483,15.333062 49.678493,20.203616 39.239173,35.962056 28.799835,51.720493 26.43895,64.104544 37.38031,74.19947 c 10.941351,10.09493 65.05593,7.768977 65.05593,7.768977 z"
         id="path1534"
         inkscape:transform-center-x="36.139346"
         inkscape:transform-center-y="-31.08446" />
      <path
         style="fill:url(#linearGradient1482);stroke:url(#unutar_latica);stroke-width:0.264583px;stroke-linecap:butt;stroke-linejoin:miter;stroke-opacity:1"
         d="m 102.68368,81.59317 c 0,0 -40.081534,35.74884 -35.068899,53.76576 5.012619,18.01693 16.358416,25.27975 35.240679,24.40347 18.88228,-0.87627 30.27196,-6.28122 31.96133,-21.07199 1.68938,-14.79077 -32.13311,-57.09724 -32.13311,-57.09724 z"
         id="path1536"
         inkscape:transform-center-x="1.4352257"
         inkscape:transform-center-y="38.994949" />
    </g>
    <g
       id="g1524"
       inkscape:label="LATICE 2 "
       style="fill:url(#unutar_latica);stroke:url(#unutar_latica)"
       sodipodi:insensitive="true">
      <path
         style="fill:url(#unutar_latica);stroke:url(#unutar_latica);stroke-width:0.264583px;stroke-linecap:butt;stroke-linejoin:miter;stroke-opacity:1"
         d="m 102.24256,83.065468 c 0,0 -14.497448,-45.420491 -22.678573,-54.806549 C 71.119038,18.570182 67.090774,5.2023723 41.577382,23.534218 16.063988,41.866064 72.19345,31.282729 65.200891,40.732134 58.208332,50.181538 53.105654,70.403266 45.924105,60.008919 38.74256,49.614575 31.75,34.495527 24.568452,45.645825 c -7.181548,11.150298 -4.976954,23.439876 4.913689,29.860117 10.772324,6.99256 17.022841,10.016369 45.546131,8.693454 27.560048,-1.27824 27.214288,-1.133928 27.214288,-1.133928 z"
         id="path1515"
         sodipodi:nodetypes="csssssssc"
         inkscape:transform-center-x="40.631776"
         inkscape:transform-center-y="-33.262363" />
      <path
         style="fill:url(#unutar_latica);stroke:url(#unutar_latica);stroke-width:0.264583px;stroke-linecap:butt;stroke-linejoin:miter;stroke-opacity:1"
         d="m 102.04764,82.265204 c 0,0 -30.374495,36.750336 -33.848235,48.707006 -3.585759,12.34225 -12.654285,22.95767 16.560316,34.51175 29.214599,11.55409 -10.031993,-29.94565 1.697768,-29.17115 11.72976,0.7745 31.500481,-5.86433 26.638121,5.79648 -4.86236,11.66081 -13.80171,25.71675 -0.53884,25.73076 13.26286,0.014 22.41014,-8.48429 22.46463,-20.27587 0.0593,-12.84272 -0.77572,-19.73583 -17.30805,-43.01694 C 101.73932,82.052334 102.04764,82.265204 102.04764,82.265204 Z"
         id="path1517"
         sodipodi:nodetypes="csssssssc"
         inkscape:transform-center-x="2.4097415"
         inkscape:transform-center-y="42.334042" />
      <path
         style="fill:url(#unutar_latica);stroke:url(#unutar_latica);stroke-width:0.264583px;stroke-linecap:butt;stroke-linejoin:miter;stroke-opacity:1"
         d="m 101.48118,82.866167 c 0,0 47.39107,5.223408 59.29271,1.565554 12.28544,-3.775815 26.13623,-2.020596 19.76214,-32.783572 -6.37408,-30.762979 -19.52779,24.820322 -25.31756,14.5897 -5.78978,-10.230621 -22.18962,-23.114749 -9.77324,-25.44941 12.41637,-2.33466 29.07241,-2.575564 21.80553,-13.670447 -7.26688,-11.09487 -19.39106,-14.077793 -29.27823,-7.652192 -10.76851,6.99844 -16.0726,11.479381 -26.46177,38.076246 -10.03832,25.698685 -10.02958,25.324121 -10.02958,25.324121 z"
         id="path1519"
         sodipodi:nodetypes="csssssssc"
         inkscape:transform-center-x="-39.88455"
         inkscape:transform-center-y="-31.792258" />
    </g>
    <g
       id="g1513"
       inkscape:label="LATICE 1"
       style="fill:url(#latica);stroke:url(#unutar_latica)"
       sodipodi:insensitive="true">
      <path
         style="fill:url(#latica);stroke:url(#unutar_latica);stroke-width:0.264583px;stroke-linecap:butt;stroke-linejoin:miter;stroke-opacity:1"
         d="m 104.69941,9.9270746 c 0,0 -14.930065,-1.5119047 -20.788696,17.3869054 -5.858632,18.898809 -0.377977,72.76042 9.260416,47.247023 9.63839,-25.513392 8.46561,-61.580967 11.33929,-43.089286 1.25476,8.074231 4.0106,25.078465 5.70127,36.385197 2.73272,18.275727 10.658,19.750771 13.19754,-8.41496 C 127.56697,13.328862 104.69941,9.9270746 104.69941,9.9270746 Z"
         id="path1493"
         sodipodi:nodetypes="csssssc"
         inkscape:transform-center-x="-0.37922604"
         inkscape:transform-center-y="-36.096932" />
      <path
         style="fill:url(#latica);stroke:url(#unutar_latica);stroke-width:0.264583px;stroke-linecap:butt;stroke-linejoin:miter;stroke-opacity:1"
         d="m 164.07674,118.34149 c 0,0 8.51656,-12.3556 -5.22326,-26.593083 -13.73982,-14.237481 -63.581052,-35.378974 -45.86524,-14.642964 17.71581,20.736005 49.8883,37.081527 32.29902,30.692657 -7.6802,-2.78965 -23.9092,-8.565307 -34.63215,-12.530003 -17.332129,-6.408376 -22.442277,-0.173618 1.01731,15.618953 38.40818,25.85568 52.40432,7.45444 52.40432,7.45444 z"
         id="path1506"
         sodipodi:nodetypes="csssssc"
         inkscape:transform-center-x="-28.930075"
         inkscape:transform-center-y="14.867605" />
      <path
         style="fill:url(#latica);stroke:url(#unutar_latica);stroke-width:0.264583px;stroke-linecap:butt;stroke-linejoin:miter;stroke-opacity:1"
         d="m 38.351261,114.2995 c 0,0 5.891628,13.8015 25.268296,9.79734 C 82.996222,120.09267 127.50188,89.264799 100.50768,93.156528 73.513495,97.048258 42.504139,115.50537 57.304313,104.05307 63.766682,99.052525 77.321587,88.42223 86.403253,81.477893 101.08249,70.253361 98.543792,62.602161 72.658222,73.990522 30.278219,92.635625 38.351261,114.2995 38.351261,114.2995 Z"
         id="path1508"
         sodipodi:nodetypes="csssssc"
         inkscape:transform-center-x="28.972994"
         inkscape:transform-center-y="14.902448" />
    </g>
    <g
       id="g1557"
       inkscape:label="SREDINA"
       sodipodi:insensitive="true">
      <path
         style="fill:url(#unutar_latica);stroke:#000000;stroke-width:0.290268px;stroke-linecap:butt;stroke-linejoin:miter;stroke-opacity:1"
         d="m 102.11364,81.631597 c 0,0 21.9933,-12.137929 16.36216,-19.926435 -5.63112,-7.788504 -12.64348,2.326437 -12.64348,2.326437 0,0 -0.15937,-7.586205 -5.15302,-7.788505 -4.993649,-0.202297 -6.099336,2.1129 -7.166388,5.116722 -1.208502,3.402012 0.748106,7.305086 3.026498,11.28702 1.341806,2.345067 5.57423,8.984761 5.57423,8.984761 z"
         id="path1548"
         sodipodi:nodetypes="cscsssc"
         inkscape:transform-center-x="-4.1595476"
         inkscape:transform-center-y="-12.591636" />
      <path
         style="fill:url(#unutar_latica);stroke:#000000;stroke-width:0.290268px;stroke-linecap:butt;stroke-linejoin:miter;stroke-opacity:1"
         d="m 102.11364,81.631597 c 0,0 4.31982,24.746183 13.51693,21.956223 9.19709,-2.78994 1.91482,-12.712328 1.91482,-12.712328 0,0 7.22512,2.318115 9.04151,-2.337868 1.81639,-4.655994 -0.013,-6.454932 -2.50601,-8.441445 -2.82353,-2.249848 -7.15088,-1.669943 -11.65753,-0.811437 -2.65408,0.505606 -10.30972,2.346855 -10.30972,2.346855 z"
         id="path1550"
         sodipodi:nodetypes="cscsssc"
         inkscape:transform-center-x="-12.499964"
         inkscape:transform-center-y="9.5002034" />
      <path
         style="fill:url(#unutar_latica);stroke:#000000;stroke-width:0.290268px;stroke-linecap:butt;stroke-linejoin:miter;stroke-opacity:1"
         d="m 102.284,81.635966 c 0,0 -23.887273,-7.773846 -25.72997,1.658813 -1.84271,9.432641 10.334851,7.645962 10.334851,7.645962 0,0 -5.432196,5.297843 -2.169256,9.083429 3.262943,3.78559 5.709181,3.0119 8.63201,1.73965 3.310284,-1.4409 4.824753,-5.535856 6.177041,-9.919711 C 100.32507,89.26234 102.284,81.635966 102.284,81.635966 Z"
         id="path1552"
         sodipodi:nodetypes="cscsssc"
         inkscape:transform-center-x="12.881924"
         inkscape:transform-center-y="9.0046861" />
    </g>
    <ellipse
       style="opacity:0.995;fill:url(#linearGradient1482);fill-opacity:1;fill-rule:evenodd;stroke:url(#unutar_latica);stroke-width:3.38086;stroke-linecap:square;stroke-dashoffset:23.1307;stroke-opacity:0.3;paint-order:markers stroke fill"
       id="path1559"
       cx="103.17439"
       cy="81.272087"
       rx="9.3340454"
       ry="9.1165113"
       inkscape:label="MIDDLE"
       sodipodi:insensitive="true" />
    <path
       style="fill:url(#stabiljka);stroke:url(#stabiljka);stroke-width:0.264583px;stroke-linecap:butt;stroke-linejoin:miter;stroke-opacity:1"
       d="M 124.5476,395.35518 C 161.43079,240.33885 103.70058,79.709865 103.70058,79.709865 c 0,0 50.24667,168.647065 20.84702,315.645315 z"
       id="path1561"
       sodipodi:nodetypes="ccc"
       sodipodi:insensitive="true" />
    <path
       style="fill:url(#stabiljka);stroke:url(#stabiljka);stroke-width:0.264583px;stroke-linecap:butt;stroke-linejoin:miter;stroke-opacity:1"
       d="m 131.49661,240.33885 c 0,0 -8.28536,-20.84702 -37.952276,-15.50163 -29.666916,5.34539 -35.012309,7.75081 -35.012309,7.75081 0,0 27.528763,31.80508 44.634015,26.19242 17.10525,-5.61266 28.33057,-18.4416 28.33057,-18.4416 z"
       id="path1563" />
    <path
       style="fill:url(#stabiljka);stroke:url(#stabiljka);stroke-width:0.264583px;stroke-linecap:butt;stroke-linejoin:miter;stroke-opacity:1"
       d="m 135.17489,240.07158 c 0,0 8.28536,-20.84702 37.95228,-15.50163 29.66691,5.34539 35.0123,7.75081 35.0123,7.75081 0,0 -27.52876,31.80508 -44.63401,26.19242 -17.10525,-5.61266 -28.33057,-18.4416 -28.33057,-18.4416 z"
       id="path1565" />
    <path
       style="fill:url(#stabiljka);stroke:url(#stabiljka);stroke-width:0.264583px;stroke-linecap:butt;stroke-linejoin:miter;stroke-opacity:1"
       d="m 130.89858,198.11026 c 0,0 8.28536,-20.84702 37.95228,-15.50163 29.66691,5.34539 35.0123,7.75081 35.0123,7.75081 0,0 -27.52876,31.80508 -44.63401,26.19242 -17.10525,-5.61266 -28.33057,-18.4416 -28.33057,-18.4416 z"
       id="path1567" />
    <path
       style="fill:url(#stabiljka);stroke:url(#stabiljka);stroke-width:0.264583px;stroke-linecap:butt;stroke-linejoin:miter;stroke-opacity:1"
       d="m 131.49661,240.33885 c 0,0 -8.28536,-20.84702 -37.952276,-15.50163 -29.666916,5.34539 -35.012309,7.75081 -35.012309,7.75081 0,0 27.528763,31.80508 44.634015,26.19242 17.10525,-5.61266 28.33057,-18.4416 28.33057,-18.4416 z"
       id="path1569" />
    <path
       style="fill:url(#stabiljka);stroke:url(#stabiljka);stroke-width:0.264583px;stroke-linecap:butt;stroke-linejoin:miter;stroke-opacity:1"
       d="m 126.68576,198.6448 c 0,0 -8.28536,-20.84702 -37.952277,-15.50163 -29.666916,5.34539 -35.012309,7.75081 -35.012309,7.75081 0,0 27.528763,31.80508 44.634015,26.19242 17.105251,-5.61266 28.330571,-18.4416 28.330571,-18.4416 z"
       id="path1571" />
  </g>
</svg>
